# xmcd
#
# Track frame offsets:
#	150
#	22336
#	51174
#	67860
#
# Disc length: 1100 seconds
#
# Revision: 1
# Processed by: cddbd v1.5.2PL0 Copyright (c) Steve Scherf et al.
# Submitted via: audiograbber 1.83.01
#
DISCID=31044a04
DTITLE=Harmonica Pete and The Blues Jukes - Some welldone Blues
DYEAR=2000
DGENRE=Blues
TTITLE0=Big Legs (Zuzu Bolin)
TTITLE1=Long distance Call (Muddy Waters)
TTITLE2=Another mule (traditionell)
TTITLE3=That will never do (Little Milton)
EXTD=
EXTT0=
EXTT1=
EXTT2=
EXTT3=
PLAYORDER=
